<svg baseProfile="full" height="400" version="1.1" width="400" xmlns="http://www.w3.org/2000/svg" xmlns:ev="http://www.w3.org/2001/xml-events" xmlns:xlink="http://www.w3.org/1999/xlink"><defs><style type="text/css"><![CDATA[.background path {fill: #808080; fill-opacity: 0}.background path:nth-child(odd) {fill-opacity: .1}.axes {font-size: 14px}.x-axis .tick .lab {font-weight: bold; dominant-baseline: hanging}.axes, .tree {font-size: 14px; text-anchor: middle}.axes line, .edge {stroke: black; fill: none}.y-axis .grid {stroke: #FAFAFA}.node > .sym {fill: black; stroke: none}.site > .sym {stroke: black}.mut text {fill: red; font-style: italic}.mut.extra text {fill: hotpink}.mut line {fill: none; stroke: none}.mut .sym {fill: none; stroke: red}.mut.extra .sym {stroke: hotpink}.node .mut .sym {stroke-width: 1.5px}.tree text, .tree-sequence text {dominant-baseline: central}.plotbox .lab.lft {text-anchor: end}.plotbox .lab.rgt {text-anchor: start}]]></style></defs><g class="tree-sequence"><g class="background"><path d="M20,0 l120,0 l0,338.2 l-30,25 l0,5 l-90,0 l0,-5 l0,-25 l0,-338.2z" /><path d="M140,0 l120,0 l0,338.2 l-24,25 l0,5 l-126,0 l0,-5 l30,-25 l0,-338.2z" /><path d="M260,0 l120,0 l0,338.2 l0,25 l0,5 l-144,0 l0,-5 l24,-25 l0,-338.2z" /></g><g class="axes"><g class="x-axis"><g transform="translate(200 400)"><text class="lab" text-anchor="middle" transform="translate(0 -11)">Genome position</text></g><line x1="20" x2="380" y1="363.2" y2="363.2" /><g class="ticks"><g class="tick" transform="translate(20 363.2)"><line x1="0" x2="0" y1="0" y2="5" /><g transform="translate(0 6)"><text class="lab">0</text></g></g><g class="tick" transform="translate(110 363.2)"><line x1="0" x2="0" y1="0" y2="5" /><g transform="translate(0 6)"><text class="lab">25</text></g></g><g class="tick" transform="translate(236 363.2)"><line x1="0" x2="0" y1="0" y2="5" /><g transform="translate(0 6)"><text class="lab">60</text></g></g><g class="tick" transform="translate(380 363.2)"><line x1="0" x2="0" y1="0" y2="5" /><g transform="translate(0 6)"><text class="lab">100</text></g></g></g></g></g><g class="plotbox trees"><g class="tree t0" transform="translate(20 0)"><g class="plotbox"><g class="c2 i6 node n10 root" transform="translate(60 26.8)"><g class="a10 c2 i4 node n8" transform="translate(-20 98.2)"><g class="a8 c1 i2 node n4" transform="translate(-10 98.2)"><g class="a4 i0 leaf node n0 sample" transform="translate(0.0 98.2)"><path class="edge" d="M 0 0 V -98.2 H 0.0" /><rect class="sym" height="6" width="6" x="-3" y="-3" /><text class="lab" transform="translate(0 11)">A</text></g><path class="edge" d="M 0 0 V -98.2 H 10" /><circle class="sym" cx="0" cy="0" r="3" /><text class="lab lft" transform="translate(-3 -7.0)">E</text></g><g class="a8 c1 i3 node n6" transform="translate(10 98.2)"><g class="a6 i0 leaf node n1 sample" transform="translate(0.0 98.2)"><path class="edge" d="M 0 0 V -98.2 H 0.0" /><rect class="sym" height="6" width="6" x="-3" y="-3" /><text class="lab" transform="translate(0 11)">B</text></g><path class="edge" d="M 0 0 V -98.2 H -10" /><circle class="sym" cx="0" cy="0" r="3" /><text class="lab rgt" transform="translate(3 -7.0)">G</text></g><path class="edge" d="M 0 0 V -98.2 H 20" /><circle class="sym" cx="0" cy="0" r="3" /><text class="lab lft" transform="translate(-3 -7.0)">I</text></g><g class="a10 c2 i5 node n9" transform="translate(20 98.2)"><g class="a9 c1 i2 node n5" transform="translate(-10 98.2)"><g class="a5 i1 leaf node n2 sample" transform="translate(0.0 98.2)"><path class="edge" d="M 0 0 V -98.2 H 0.0" /><rect class="sym" height="6" width="6" x="-3" y="-3" /><text class="lab" transform="translate(0 11)">C</text></g><path class="edge" d="M 0 0 V -98.2 H 10" /><circle class="sym" cx="0" cy="0" r="3" /><text class="lab lft" transform="translate(-3 -7.0)">F</text></g><g class="a9 c1 i3 node n7" transform="translate(10 98.2)"><g class="a7 i1 leaf node n3 sample" transform="translate(0.0 98.2)"><path class="edge" d="M 0 0 V -98.2 H 0.0" /><rect class="sym" height="6" width="6" x="-3" y="-3" /><text class="lab" transform="translate(0 11)">D</text></g><path class="edge" d="M 0 0 V -98.2 H -10" /><circle class="sym" cx="0" cy="0" r="3" /><text class="lab rgt" transform="translate(3 -7.0)">H</text></g><path class="edge" d="M 0 0 V -98.2 H -20" /><circle class="sym" cx="0" cy="0" r="3" /><text class="lab rgt" transform="translate(3 -7.0)">K</text></g><circle class="sym" cx="0" cy="0" r="3" /><text class="lab" transform="translate(0 -11)">N</text></g></g></g><g class="tree t1" transform="translate(140 0)"><g class="plotbox"><g class="c2 i6 node n10 root" transform="translate(72.5 26.8)"><g class="a10 c1 i4 node n8" transform="translate(17.5 98.2)"><g class="a8 c1 i3 node n6" transform="translate(0.0 98.2)"><g class="a6 i0 leaf node n1 sample" transform="translate(0.0 98.2)"><path class="edge" d="M 0 0 V -98.2 H 0.0" /><rect class="sym" height="6" width="6" x="-3" y="-3" /><text class="lab" transform="translate(0 11)">B</text></g><path class="edge" d="M 0 0 V -98.2 H 0.0" /><circle class="sym" cx="0" cy="0" r="3" /><text class="lab lft" transform="translate(-3 -7.0)">G</text></g><path class="edge" d="M 0 0 V -98.2 H -17.5" /><circle class="sym" cx="0" cy="0" r="3" /><text class="lab rgt" transform="translate(3 -7.0)">I</text></g><g class="a10 c2 i5 node n9" transform="translate(-17.5 98.2)"><g class="a9 c2 i2 node n5" transform="translate(-15 98.2)"><g class="a5 i1 leaf node n2 sample" transform="translate(10 98.2)"><path class="edge" d="M 0 0 V -98.2 H -10" /><rect class="sym" height="6" width="6" x="-3" y="-3" /><text class="lab" transform="translate(0 11)">C</text></g><g class="a5 i0 leaf node n0 sample" transform="translate(-10 98.2)"><path class="edge" d="M 0 0 V -98.2 H 10" /><rect class="sym" height="6" width="6" x="-3" y="-3" /><text class="lab" transform="translate(0 11)">A</text></g><path class="edge" d="M 0 0 V -98.2 H 15" /><circle class="sym" cx="0" cy="0" r="3" /><text class="lab lft" transform="translate(-3 -7.0)">F</text></g><g class="a9 c1 i3 node n7" transform="translate(15 98.2)"><g class="a7 i1 leaf node n3 sample" transform="translate(0.0 98.2)"><path class="edge" d="M 0 0 V -98.2 H 0.0" /><rect class="sym" height="6" width="6" x="-3" y="-3" /><text class="lab" transform="translate(0 11)">D</text></g><path class="edge" d="M 0 0 V -98.2 H -15" /><circle class="sym" cx="0" cy="0" r="3" /><text class="lab rgt" transform="translate(3 -7.0)">H</text></g><path class="edge" d="M 0 0 V -98.2 H 17.5" /><circle class="sym" cx="0" cy="0" r="3" /><text class="lab lft" transform="translate(-3 -7.0)">K</text></g><circle class="sym" cx="0" cy="0" r="3" /><text class="lab" transform="translate(0 -11)">N</text></g></g></g><g class="tree t2" transform="translate(260 0)"><g class="plotbox"><g class="c2 i6 node n10 root" transform="translate(60 26.8)"><g class="a10 c2 i4 node n8" transform="translate(20 98.2)"><g class="a8 c1 i3 node n6" transform="translate(-10 98.2)"><g class="a6 i0 leaf node n1 sample" transform="translate(0.0 98.2)"><path class="edge" d="M 0 0 V -98.2 H 0.0" /><rect class="sym" height="6" width="6" x="-3" y="-3" /><text class="lab" transform="translate(0 11)">B</text></g><path class="edge" d="M 0 0 V -98.2 H 10" /><circle class="sym" cx="0" cy="0" r="3" /><text class="lab lft" transform="translate(-3 -7.0)">G</text></g><g class="a8 c1 i2 node n4" transform="translate(10 98.2)"><g class="a4 i1 leaf node n2 sample" transform="translate(0.0 98.2)"><path class="edge" d="M 0 0 V -98.2 H 0.0" /><rect class="sym" height="6" width="6" x="-3" y="-3" /><text class="lab" transform="translate(0 11)">C</text></g><path class="edge" d="M 0 0 V -98.2 H -10" /><circle class="sym" cx="0" cy="0" r="3" /><text class="lab rgt" transform="translate(3 -7.0)">E</text></g><path class="edge" d="M 0 0 V -98.2 H -20" /><circle class="sym" cx="0" cy="0" r="3" /><text class="lab rgt" transform="translate(3 -7.0)">I</text></g><g class="a10 c2 i5 node n9" transform="translate(-20 98.2)"><g class="a9 c1 i2 node n5" transform="translate(-10 98.2)"><g class="a5 i0 leaf node n0 sample" transform="translate(0.0 98.2)"><path class="edge" d="M 0 0 V -98.2 H 0.0" /><rect class="sym" height="6" width="6" x="-3" y="-3" /><text class="lab" transform="translate(0 11)">A</text></g><path class="edge" d="M 0 0 V -98.2 H 10" /><circle class="sym" cx="0" cy="0" r="3" /><text class="lab lft" transform="translate(-3 -7.0)">F</text></g><g class="a9 c1 i3 node n7" transform="translate(10 98.2)"><g class="a7 i1 leaf node n3 sample" transform="translate(0.0 98.2)"><path class="edge" d="M 0 0 V -98.2 H 0.0" /><rect class="sym" height="6" width="6" x="-3" y="-3" /><text class="lab" transform="translate(0 11)">D</text></g><path class="edge" d="M 0 0 V -98.2 H -10" /><circle class="sym" cx="0" cy="0" r="3" /><text class="lab rgt" transform="translate(3 -7.0)">H</text></g><path class="edge" d="M 0 0 V -98.2 H 20" /><circle class="sym" cx="0" cy="0" r="3" /><text class="lab lft" transform="translate(-3 -7.0)">K</text></g><circle class="sym" cx="0" cy="0" r="3" /><text class="lab" transform="translate(0 -11)">N</text></g></g></g></g></g></svg>